<svg t="1632236756053" class="icon" viewBox="0 0 1024 1024" version="1.1" xmlns="http://www.w3.org/2000/svg" p-id="8628" width="200" height="200"><path d="M599.466667 324.266667h-469.333334c-12.8 0-21.333333-8.533333-21.333333-21.333334v-170.666666c0-12.8 8.533333-21.333333 21.333333-21.333334h469.333334c12.8 0 21.333333 8.533333 21.333333 21.333334v170.666666c0 10.666667-10.666667 21.333333-21.333333 21.333334z" fill="#ffffff" p-id="8629"></path><path d="M898.133333 622.933333h-469.333333c-12.8 0-21.333333-8.533333-21.333333-21.333333v-170.666667c0-12.8 8.533333-21.333333 21.333333-21.333333h469.333333c12.8 0 21.333333 8.533333 21.333334 21.333333v170.666667c0 10.666667-10.666667 21.333333-21.333334 21.333333zM898.133333 921.6h-469.333333c-12.8 0-21.333333-8.533333-21.333333-21.333333v-170.666667c0-12.8 8.533333-21.333333 21.333333-21.333333h469.333333c12.8 0 21.333333 8.533333 21.333334 21.333333v170.666667c0 10.666667-10.666667 21.333333-21.333334 21.333333zM279.466667 836.266667h-21.333334c-12.8 0-21.333333-8.533333-21.333333-21.333334v-490.666666h42.666667v512z" fill="#ffffff" p-id="8630"></path><path d="M279.829333 536.533333v-42.666666h554.666667v42.666666zM279.829333 835.2v-42.666667h554.666667v42.666667z" fill="#ffffff" p-id="8631"></path></svg>