<svg t="1632237106250" class="icon" viewBox="0 0 1024 1024" version="1.1" xmlns="http://www.w3.org/2000/svg" p-id="9844" width="200" height="200"><path d="M213.504 42.496c-23.552 0-42.496 18.944-42.496 42.496V256H256V128h640v768H256v-128H170.496v170.496c0 23.552 18.944 42.496 42.496 42.496h725.504c23.552 0 42.496-18.944 42.496-42.496V85.504c0-23.552-18.944-42.496-42.496-42.496 0-0.512-724.992-0.512-724.992-0.512z m192 320c-11.776 0-21.504 9.728-21.504 21.504v85.504H21.504c-11.776 0-21.504 9.728-21.504 21.504v42.496c0 11.776 9.728 21.504 21.504 21.504H384V640l0.512 3.584c0.512 4.608 3.072 8.192 6.144 11.264 8.192 8.192 22.016 8.192 30.208 0l128-128 2.56-3.072c5.632-8.704 4.608-19.968-2.56-27.136l-128-128-2.56-2.56c-4.096-2.048-8.704-3.584-12.8-3.584z" p-id="9845" fill="#ffffff"></path></svg>