<svg t="1632290802578" class="icon" viewBox="0 0 1024 1024" version="1.1" xmlns="http://www.w3.org/2000/svg" p-id="2591" width="200" height="200"><path d="M980.992 507.6992l-418.9696-424.96-28.1088-28.5184a33.792 33.792 0 0 0-48.128 0L38.7072 507.6992a70.6048 70.6048 0 0 0 50.0224 120.2688h46.08v358.4h750.1312v-358.4H931.84a68.5056 68.5056 0 0 0 49.1008-20.48 71.168 71.168 0 0 0 0-99.584z m-410.4192 399.36H449.1264v-224.4096h121.4464z m236.288-358.4v358.4H640v-250.88a43.6736 43.6736 0 0 0-43.3664-43.9808H423.1168a43.6736 43.6736 0 0 0-43.3664 43.9808v250.88H212.8896v-358.4H108.8L509.952 141.9776l25.088 25.6 376.0128 381.3376z" fill="#ffffff" p-id="2592"></path></svg>