<svg t="1632235107607" class="icon" viewBox="0 0 1024 1024" version="1.1" xmlns="http://www.w3.org/2000/svg" p-id="7869" width="200" height="200"><path d="M409.2416 173.2096c11.1104 0 20.48 9.3696 20.48 20.48v199.3216c0 11.1104-9.3696 20.48-20.48 20.48H209.92c-11.1104 0-20.48-9.3696-20.48-20.48V193.6896c0-11.1104 9.3696-20.48 20.48-20.48h199.3216m0-40.96H209.92c-33.792 0-61.44 27.648-61.44 61.44v199.3216c0 33.792 27.648 61.44 61.44 61.44h199.3216c33.792 0 61.44-27.648 61.44-61.44V193.6896c0-33.792-27.648-61.44-61.44-61.44zM409.2416 593.8176c11.1104 0 20.48 9.3696 20.48 20.48v199.3216c0 11.1104-9.3696 20.48-20.48 20.48H209.92c-11.1104 0-20.48-9.3696-20.48-20.48v-199.3216c0-11.1104 9.3696-20.48 20.48-20.48h199.3216m0-40.96H209.92c-33.792 0-61.44 27.648-61.44 61.44v199.3216c0 33.792 27.648 61.44 61.44 61.44h199.3216c33.792 0 61.44-27.648 61.44-61.44v-199.3216c0-33.792-27.648-61.44-61.44-61.44zM829.8496 593.8176c11.1104 0 20.48 9.3696 20.48 20.48v199.3216c0 11.1104-9.3696 20.48-20.48 20.48h-199.3216c-11.1104 0-20.48-9.3696-20.48-20.48v-199.3216c0-11.1104 9.3696-20.48 20.48-20.48h199.3216m0-40.96h-199.3216c-33.792 0-61.44 27.648-61.44 61.44v199.3216c0 33.792 27.648 61.44 61.44 61.44h199.3216c33.792 0 61.44-27.648 61.44-61.44v-199.3216c0-33.792-27.648-61.44-61.44-61.44zM730.2144 131.9936c3.1744 0 9.3184 0.768 14.4896 5.9392l140.9024 140.9024c5.1712 5.1712 5.9392 11.264 5.9392 14.4896s-0.768 9.3184-5.9392 14.4896l-140.9024 140.9024c-5.1712 5.1712-11.264 5.9392-14.4896 5.9392s-9.3184-0.768-14.4896-5.9392l-140.9536-140.9024c-5.1712-5.1712-5.9392-11.264-5.9392-14.4896s0.768-9.3184 5.9392-14.4896l140.9536-140.9536c5.1712-5.12 11.264-5.888 14.4896-5.888m0-40.96c-15.7696 0-31.488 5.9904-43.4688 17.92L545.8432 249.856c-23.9104 23.9104-23.9104 62.976 0 86.8864l140.9536 140.9536c11.9296 11.9296 27.6992 17.92 43.4688 17.92s31.488-5.9904 43.4688-17.92l140.9536-140.9536c23.9104-23.9104 23.9104-62.976 0-86.8864L773.632 108.9536c-11.9296-11.9808-27.6992-17.92-43.4176-17.92z" fill="#666666" p-id="7870"></path></svg>